<?xml version="1.0" standalone="no"?>
<!DOCTYPE svg PUBLIC "-//W3C//DTD SVG 20010904//EN"
 "http://www.w3.org/TR/2001/REC-SVG-20010904/DTD/svg10.dtd">
<svg version="1.0" xmlns="http://www.w3.org/2000/svg"
 width="600.000000pt" height="377.000000pt" viewBox="0 0 600.000000 377.000000"
 preserveAspectRatio="xMidYMid meet">
<g transform="translate(0.000000,377.000000) scale(0.100000,-0.100000)"
fill="#000000" stroke="none">
<path d="M430 3499 c0 -6 -9 -8 -20 -4 -11 4 -20 2 -20 -4 0 -6 -6 -11 -13
-11 -18 0 -102 -83 -99 -97 2 -7 -2 -13 -8 -13 -5 0 -10 -11 -10 -25 0 -14 -5
-25 -10 -25 -12 0 -11 -86 1 -110 10 -20 22 -53 23 -64 1 -4 19 -23 41 -42 38
-32 39 -34 15 -34 l-25 0 2 -1150 3 -1150 2317 0 c2228 0 2318 0 2321 18 2 13
-8 22 -33 32 -19 7 -35 18 -35 22 0 5 -5 6 -11 2 -6 -3 -14 -2 -18 3 -7 12
-133 73 -149 73 -7 0 -12 4 -12 9 0 7 -36 22 -49 20 -2 0 -7 3 -10 8 -7 11
-75 43 -90 43 -6 0 -11 4 -11 9 0 5 -13 12 -30 16 -16 4 -30 11 -30 16 0 5 -5
9 -11 9 -16 0 -83 32 -90 43 -4 5 -12 6 -18 3 -6 -4 -11 -2 -11 3 0 6 -7 11
-15 11 -8 0 -15 5 -15 11 0 6 -7 9 -15 5 -8 -3 -15 -2 -15 2 0 8 -73 42 -90
42 -6 0 -10 4 -10 9 0 8 -37 24 -52 22 -5 -1 -8 3 -8 8 0 5 -10 12 -22 16 -13
4 -25 9 -28 10 -3 1 -15 6 -27 10 -13 4 -23 11 -23 15 0 5 -13 11 -30 15 -16
4 -30 10 -30 15 0 4 -10 11 -22 15 -13 4 -25 9 -28 10 -3 1 -15 6 -27 10 -13
4 -23 11 -23 15 0 5 -13 11 -30 15 -16 4 -30 11 -30 16 0 5 -7 9 -16 9 -17 0
-75 29 -85 43 -3 5 -9 8 -13 7 -9 -2 -140 63 -144 72 -2 4 -10 4 -18 1 -8 -3
-14 -1 -14 5 0 6 -13 13 -30 17 -17 4 -30 10 -30 13 0 8 -74 42 -90 42 -6 0
-10 4 -10 9 0 5 -13 12 -30 16 -16 4 -30 11 -30 16 0 5 -4 9 -10 9 -16 0 -90
34 -90 42 0 3 -13 9 -30 13 -16 4 -30 11 -30 16 0 5 -6 9 -12 9 -7 1 -31 9
-53 20 -22 11 -46 19 -52 20 -7 0 -13 4 -13 9 0 7 -28 19 -47 19 -3 0 -9 4
-12 9 -7 11 -75 43 -90 43 -6 0 -11 4 -11 9 0 5 -13 12 -30 16 -16 4 -30 10
-30 15 0 4 -10 11 -22 15 -13 4 -25 9 -28 10 -3 1 -15 6 -27 10 -13 4 -23 11
-23 15 0 5 -13 11 -30 15 -16 4 -30 11 -30 16 0 5 -4 9 -10 9 -16 0 -90 34
-90 42 0 3 -13 9 -30 13 -16 4 -30 11 -30 16 0 5 -4 9 -10 9 -17 0 -90 34 -90
42 0 4 -7 5 -15 2 -8 -4 -15 -2 -15 4 0 8 -27 20 -47 20 -3 0 -9 4 -12 9 -7
11 -75 43 -90 43 -6 0 -11 4 -11 9 0 5 -13 12 -30 16 -16 4 -30 10 -30 15 0 4
-10 11 -22 15 -13 4 -25 9 -28 10 -3 1 -15 6 -27 10 -13 4 -23 11 -23 15 0 5
-13 11 -30 15 -16 4 -30 11 -30 16 0 5 -5 9 -11 9 -15 0 -83 32 -90 43 -3 5
-10 9 -15 9 -5 0 -41 15 -80 34 -39 19 -76 34 -83 34 -6 0 -11 4 -11 9 0 7
-28 19 -47 19 -3 0 -9 4 -12 9 -7 11 -75 43 -90 43 -6 0 -11 4 -11 9 0 5 -13
12 -30 16 -16 4 -30 10 -30 15 0 4 -10 11 -22 15 -13 4 -25 9 -28 10 -3 1 -15
6 -27 10 -13 4 -23 11 -23 15 0 5 -13 11 -30 15 -16 4 -30 11 -30 16 0 5 -6 9
-12 9 -7 1 -31 9 -53 20 -22 11 -46 19 -52 20 -7 0 -13 5 -13 10 0 6 -7 10
-15 10 -8 0 -15 5 -15 10 0 6 -5 10 -12 10 -15 0 -142 62 -146 71 -2 4 -10 5
-18 2 -8 -3 -14 -1 -14 5 0 5 -10 13 -22 17 -13 4 -25 9 -28 10 -3 1 -15 6
-27 10 -13 4 -23 11 -23 15 0 5 -13 11 -30 15 -16 4 -30 11 -30 16 0 5 -4 9
-10 9 -16 0 -90 34 -90 42 0 3 -13 9 -30 13 -16 4 -30 11 -30 16 0 5 -6 9 -12
9 -7 1 -31 9 -53 20 -22 11 -46 19 -52 20 -7 0 -13 4 -13 9 0 5 -16 12 -35 15
-38 7 -52 42 -16 42 11 0 17 -6 14 -16 -3 -12 5 -15 44 -13 72 2 124 22 165
65 25 26 68 38 68 19 0 -7 36 -22 49 -20 2 0 7 -3 10 -8 7 -11 75 -43 90 -43
6 0 11 -4 11 -9 0 -5 14 -12 30 -16 17 -4 30 -11 30 -16 0 -5 5 -9 10 -9 13 0
143 -62 150 -72 3 -3 18 -10 33 -13 15 -4 30 -11 33 -16 7 -12 34 -11 34 1 0
6 -6 10 -14 10 -8 0 -16 4 -18 8 -4 10 -130 72 -146 72 -7 0 -12 5 -12 10 0 6
-5 10 -11 10 -7 0 -66 27 -131 60 -66 33 -125 60 -130 60 -5 0 -16 7 -25 16
-12 11 -13 18 -4 27 6 6 11 19 11 29 0 10 5 18 10 18 6 0 10 25 10 55 0 30 -4
55 -10 55 -5 0 -10 11 -10 25 0 14 -5 25 -11 25 -5 0 -7 4 -4 10 7 12 -81 100
-101 100 -8 0 -14 5 -14 11 0 6 -9 9 -20 6 -11 -3 -23 -1 -26 4 -8 13 -114 11
-114 -2z m120 -58 c0 -5 12 -12 28 -16 32 -8 53 -29 72 -72 8 -18 17 -33 20
-33 8 0 3 -89 -5 -117 -4 -13 -11 -23 -15 -23 -4 0 -12 -11 -18 -25 -11 -23
-55 -51 -74 -47 -5 1 -8 -3 -8 -8 0 -6 -26 -10 -57 -10 -63 1 -127 29 -147 65
-6 11 -14 22 -17 25 -17 15 -34 140 -19 140 3 0 11 15 19 33 20 46 39 65 72
72 16 4 29 11 29 16 0 5 27 9 60 9 33 0 60 -4 60 -9z m-140 -371 c0 -5 -4 -11
-10 -15 -5 -3 -7 -11 -4 -18 2 -7 -7 -13 -26 -14 -35 -3 -38 8 -9 41 19 22 49
26 49 6z m-7 -86 c9 -4 17 -10 17 -14 0 -5 14 -11 30 -15 17 -4 30 -10 30 -15
0 -4 10 -11 23 -15 12 -4 24 -9 27 -10 3 -1 15 -6 28 -10 12 -4 22 -11 22 -16
0 -5 3 -8 8 -7 4 1 41 -15 83 -35 42 -20 81 -37 88 -37 6 0 11 -4 11 -9 0 -7
36 -22 49 -20 2 0 7 -3 10 -8 7 -11 75 -43 90 -43 6 0 11 -4 11 -9 0 -5 14
-12 30 -16 17 -4 30 -10 30 -15 0 -4 10 -11 23 -15 12 -4 24 -9 27 -10 3 -1
15 -6 28 -10 12 -4 22 -11 22 -15 0 -5 14 -11 30 -15 17 -4 30 -11 30 -16 0
-5 5 -9 11 -9 7 0 45 -16 85 -35 41 -20 77 -35 80 -34 4 0 10 -3 13 -8 7 -11
75 -43 90 -43 6 0 11 -4 11 -9 0 -7 28 -19 47 -19 3 0 9 -4 12 -9 7 -11 75
-43 90 -43 6 0 11 -4 11 -9 0 -5 14 -12 30 -16 17 -4 30 -10 30 -15 0 -4 10
-11 23 -15 12 -4 24 -9 27 -10 3 -1 15 -6 28 -10 12 -4 22 -11 22 -15 0 -5 14
-11 30 -15 17 -4 30 -11 30 -16 0 -5 6 -9 13 -9 6 -1 30 -9 52 -20 22 -11 46
-19 53 -20 6 0 12 -4 12 -10 0 -5 7 -10 15 -10 8 0 15 -5 15 -11 0 -6 7 -9 15
-5 8 3 15 2 15 -2 0 -8 73 -42 90 -42 6 0 10 -4 10 -9 0 -5 14 -12 30 -16 17
-4 30 -10 30 -15 0 -4 10 -11 23 -15 12 -4 24 -9 27 -10 3 -1 15 -6 28 -10 12
-4 22 -11 22 -15 0 -5 14 -11 30 -15 17 -4 30 -11 30 -16 0 -5 4 -9 10 -9 17
0 90 -34 90 -42 0 -4 7 -5 15 -2 8 4 15 1 15 -5 0 -6 7 -11 15 -11 8 0 15 -4
15 -10 0 -5 6 -10 13 -10 6 -1 30 -9 52 -20 22 -11 46 -19 53 -20 6 0 12 -4
12 -9 0 -8 37 -24 53 -22 4 1 7 -3 7 -8 0 -5 10 -12 23 -16 12 -4 24 -9 27
-10 3 -1 15 -6 28 -10 12 -4 22 -11 22 -15 0 -5 14 -11 30 -15 17 -4 30 -10
30 -15 0 -4 10 -11 23 -15 12 -4 24 -9 27 -10 3 -1 15 -6 28 -10 12 -4 22 -11
22 -15 0 -5 14 -11 30 -15 17 -4 30 -11 30 -16 0 -5 4 -9 10 -9 17 0 90 -34
90 -42 0 -4 7 -5 15 -2 8 4 15 2 15 -4 0 -8 27 -20 47 -20 3 0 9 -4 12 -9 7
-11 75 -43 90 -43 6 0 11 -4 11 -9 0 -5 14 -12 30 -16 17 -4 30 -10 30 -15 0
-4 10 -11 23 -15 12 -4 24 -9 27 -10 3 -1 15 -6 28 -10 12 -4 22 -11 22 -15 0
-5 14 -11 30 -15 17 -4 30 -10 30 -15 0 -4 10 -11 23 -15 12 -4 24 -9 27 -10
3 -1 15 -6 28 -10 12 -4 22 -11 22 -15 0 -5 14 -11 30 -15 17 -4 30 -11 30
-16 0 -5 6 -9 13 -9 6 -1 30 -9 52 -20 22 -11 46 -19 53 -20 6 0 12 -4 12 -9
0 -7 28 -19 47 -19 3 0 9 -4 12 -9 7 -11 75 -43 90 -43 6 0 11 -4 11 -9 0 -5
14 -12 30 -16 17 -4 30 -10 30 -15 0 -4 10 -11 23 -15 12 -4 24 -9 27 -10 3
-1 15 -6 28 -10 12 -4 22 -11 22 -15 0 -5 14 -11 30 -15 17 -4 30 -10 30 -15
0 -5 14 -11 30 -15 17 -4 30 -11 30 -16 0 -5 9 -9 20 -9 11 0 20 -4 20 -10 0
-5 3 -10 8 -9 15 2 52 -14 52 -22 0 -5 5 -9 11 -9 7 0 45 -16 85 -35 40 -19
77 -35 83 -35 6 0 11 -3 11 -8 0 -8 73 -42 90 -42 6 0 10 -4 10 -9 0 -5 14
-12 30 -16 17 -4 30 -10 30 -15 0 -4 10 -11 23 -15 12 -4 24 -9 27 -10 3 -1
15 -6 28 -10 12 -4 22 -11 22 -16 0 -5 -942 -9 -2220 -9 l-2220 0 0 1088 c0
599 3 1092 7 1096 4 3 12 4 17 1 6 -3 19 -8 29 -11z m4449 -2168 c7 4 8 2 4
-4 -8 -14 -36 -16 -36 -4 0 14 14 24 18 13 2 -6 9 -8 14 -5z"/>
<path d="M542 3208 c7 -20 70 -50 81 -39 6 6 -6 17 -34 30 -50 24 -52 25 -47
9z"/>
<path d="M1233 2910 c-19 -21 -33 -48 -33 -64 0 -14 -4 -26 -10 -26 -5 0 -10
-7 -10 -15 0 -12 13 -15 60 -15 33 0 60 -4 60 -8 0 -12 118 -14 125 -2 3 6
-31 46 -76 90 -46 44 -83 80 -84 79 0 0 -15 -18 -32 -39z m117 -91 c8 -15 4
-15 -50 -4 -33 7 -62 10 -65 7 -3 -3 -5 4 -5 16 0 12 9 31 21 43 l21 21 35
-34 c19 -18 39 -40 43 -49z"/>
<path d="M5056 1242 c-3 -5 -15 -8 -26 -5 -11 3 -20 0 -20 -6 0 -6 -6 -11 -13
-11 -16 0 -97 -82 -97 -98 0 -7 -5 -12 -11 -12 -6 0 -9 -9 -6 -20 3 -11 0 -23
-6 -28 -16 -9 -15 -93 0 -110 7 -7 10 -19 7 -27 -4 -8 -1 -15 5 -15 6 0 11 -5
11 -12 0 -16 81 -98 96 -98 7 0 14 -4 16 -10 4 -12 140 -28 159 -19 8 4 28 13
44 20 37 16 115 88 115 106 0 7 5 13 11 13 6 0 9 6 6 14 -3 8 -1 25 5 38 11
22 14 23 137 21 l126 -2 1 -33 c0 -18 2 -35 5 -37 4 -4 42 5 74 19 40 17 60
23 68 22 4 -1 7 2 7 8 0 5 10 10 23 10 22 0 56 16 47 22 -29 18 -56 29 -90 34
-22 4 -40 10 -40 14 0 9 -39 23 -57 21 -6 -1 -14 3 -18 9 -14 23 -23 8 -18
-30 l6 -40 -132 1 -131 1 0 28 c0 16 -5 32 -10 35 -6 4 -8 15 -5 26 4 11 2 19
-4 19 -6 0 -11 6 -11 13 0 15 -73 85 -110 106 -31 17 -155 27 -164 13z m128
-67 c11 -8 26 -15 34 -15 27 0 82 -93 82 -138 0 -23 -1 -24 -97 -21 -71 2 -98
0 -101 -10 -3 -9 19 -12 92 -10 53 1 99 -1 102 -3 2 -3 -2 -18 -11 -34 -8 -16
-15 -34 -15 -39 0 -11 -22 -26 -77 -57 -33 -18 -123 -25 -137 -10 -4 4 -11 7
-14 8 -40 5 -91 56 -96 96 -1 3 -4 10 -8 14 -5 4 -8 28 -8 54 0 26 3 50 8 54
4 4 7 11 7 15 0 19 52 81 68 81 9 0 17 5 17 11 0 5 4 8 9 4 5 -3 12 -1 16 5 9
15 107 11 129 -5z m500 -157 c-3 -4 11 -10 31 -14 47 -9 44 -19 -9 -33 -59
-15 -56 -16 -56 22 0 26 4 33 19 33 11 0 17 -4 15 -8z"/>
<path d="M4880 540 c0 -5 5 -10 10 -10 15 0 13 -143 -2 -158 -9 -9 -5 -12 20
-13 18 -1 37 -2 44 -3 6 -1 13 5 16 12 2 7 -5 12 -17 12 -17 0 -21 6 -21 35 0
32 3 35 28 35 15 0 33 -5 40 -12 9 -9 12 -4 12 22 0 26 -3 31 -12 22 -7 -7
-25 -12 -40 -12 -24 0 -28 4 -28 30 0 26 3 30 29 30 16 0 34 -7 41 -15 18 -22
30 -18 30 10 0 24 -2 25 -75 25 -43 0 -75 -4 -75 -10z"/>
<path d="M5055 540 c-8 -14 3 -30 21 -30 8 0 14 9 14 20 0 21 -24 28 -35 10z"/>
<path d="M5401 536 c-8 -10 -9 -16 -1 -21 5 -3 10 -35 10 -69 0 -61 -1 -63
-25 -63 -23 0 -25 3 -25 41 0 23 -5 47 -12 54 -18 18 -53 14 -73 -8 -23 -25
-12 -39 13 -17 10 10 24 17 31 17 22 0 7 -34 -22 -48 -15 -8 -27 -21 -27 -32
0 -11 -5 -17 -12 -15 -8 3 -13 24 -13 51 0 55 -22 77 -55 56 -11 -7 -20 -8
-20 -3 0 5 -11 4 -25 -2 -25 -12 -34 -27 -15 -27 14 0 12 -64 -2 -78 -9 -9 -3
-12 27 -12 30 0 36 3 27 12 -28 28 -3 112 28 93 14 -9 13 -78 -2 -94 -11 -10
-5 -12 27 -10 22 2 45 0 51 -3 5 -4 16 -3 23 1 12 8 104 5 128 -4 16 -5 27 11
13 20 -5 3 -10 44 -10 91 0 65 -3 84 -14 84 -7 0 -19 -6 -25 -14z m-71 -131
c0 -16 -27 -32 -37 -21 -7 7 16 36 28 36 5 0 9 -7 9 -15z"/>
<path d="M384 529 c-2 -4 0 -10 6 -14 13 -8 13 -155 0 -155 -5 0 -10 -4 -10
-10 0 -5 16 -10 35 -10 19 0 35 5 35 10 0 6 -4 10 -10 10 -6 0 -10 30 -10 71
0 56 4 75 17 84 14 11 12 13 -21 17 -20 2 -39 1 -42 -3z"/>
<path d="M620 515 c0 -8 9 -15 20 -15 11 0 20 7 20 15 0 8 -9 15 -20 15 -11 0
-20 -7 -20 -15z"/>
<path d="M780 515 c0 -8 9 -15 20 -15 11 0 20 7 20 15 0 8 -9 15 -20 15 -11 0
-20 -7 -20 -15z"/>
<path d="M981 516 c-7 -8 -8 -15 -2 -18 5 -1 10 -30 11 -63 2 -80 2 -79 -15
-65 -10 9 -15 9 -15 1 0 -6 -5 -11 -11 -11 -8 0 -10 15 -7 44 3 25 1 49 -5 55
-19 19 -65 13 -82 -11 -19 -28 0 -39 19 -12 9 11 19 15 31 10 21 -8 12 -21
-27 -40 -28 -14 -30 -45 -4 -60 14 -8 20 -8 23 2 5 13 33 17 33 4 0 -5 25 -9
55 -10 30 -1 55 3 55 8 0 6 -5 10 -11 10 -8 0 -10 26 -7 85 4 75 2 85 -13 85
-9 0 -22 -6 -28 -14z m-71 -141 c-7 -8 -16 -15 -21 -15 -13 0 -11 24 3 38 18
18 35 -3 18 -23z"/>
<path d="M704 479 c-15 -16 -16 -22 -5 -29 10 -5 12 -19 8 -45 -4 -23 -2 -42
6 -49 15 -15 127 -20 127 -6 0 5 -4 10 -10 10 -5 0 -10 25 -10 55 0 40 -4 55
-14 55 -17 0 -38 -25 -29 -34 4 -4 8 -22 10 -41 2 -31 0 -33 -24 -31 -23 3
-26 8 -27 42 -1 21 2 41 6 44 9 7 -1 50 -12 50 -4 0 -15 -9 -26 -21z"/>
<path d="M5049 473 c-11 -13 -11 -17 -1 -20 15 -6 16 -65 0 -81 -9 -9 -3 -12
27 -12 30 0 36 3 27 12 -7 7 -12 36 -12 65 0 56 -14 69 -41 36z"/>
<path d="M496 462 c-4 -4 -12 -7 -17 -7 -10 0 -11 -8 -2 -30 3 -9 3 -31 0 -50
-5 -33 -4 -35 24 -35 16 0 29 5 29 10 0 6 -4 10 -10 10 -14 0 -12 64 2 78 7 7
18 12 26 12 11 0 13 -12 10 -55 l-5 -55 64 0 c35 0 63 4 63 10 0 6 -4 10 -10
10 -5 0 -10 25 -10 55 0 40 -4 55 -14 55 -19 0 -40 -26 -26 -35 5 -3 10 -22
10 -41 0 -27 -4 -34 -20 -34 -17 0 -20 7 -20 39 0 22 -3 46 -6 55 -7 18 -54
22 -54 5 0 -8 -4 -9 -13 0 -8 6 -17 7 -21 3z"/>
</g>
</svg>
